<svg width="25" height="24" viewBox="0 0 25 24" fill="none" xmlns="http://www.w3.org/2000/svg">
<path fill-rule="evenodd" clip-rule="evenodd" d="M5.96967 5.46967C6.26256 5.17678 6.73744 5.17678 7.03033 5.46967L19.0303 17.4697C19.3232 17.7626 19.3232 18.2374 19.0303 18.5303C18.7374 18.8232 18.2626 18.8232 17.9697 18.5303L5.96967 6.53033C5.67678 6.23744 5.67678 5.76256 5.96967 5.46967Z" fill="#434343"/>
<path fill-rule="evenodd" clip-rule="evenodd" d="M19.0303 5.46967C19.3232 5.76256 19.3232 6.23744 19.0303 6.53033L7.03033 18.5303C6.73744 18.8232 6.26256 18.8232 5.96967 18.5303C5.67678 18.2374 5.67678 17.7626 5.96967 17.4697L17.9697 5.46967C18.2626 5.17678 18.7374 5.17678 19.0303 5.46967Z" fill="#434343"/>
</svg>
