<svg width="50" height="50" viewBox="0 0 50 50" fill="none" xmlns="http://www.w3.org/2000/svg">
<g clip-path="url(#clip0_417_15372)">
<path d="M15.1891 26.9997C14.7132 26.4755 14.0646 26.3153 13.4162 26.1849C12.1202 25.9187 10.8384 25.9477 9.59007 26.4239C9.34221 26.5147 9.10832 26.6393 8.89497 26.7942C8.76193 26.8755 8.66571 27.0052 8.62624 27.1563C8.49369 27.79 8.18114 28.1078 7.6737 28.1694C7.2531 28.2201 6.66965 27.9457 6.5188 27.4234C6.51322 27.4053 6.48416 27.3944 6.46594 27.3799L6.45208 25.6453C6.56024 25.5847 6.51772 25.476 6.52606 25.3873C6.64855 24.0238 6.91985 22.6789 7.33513 21.3767C8.38322 18.1118 10.3299 15.2142 12.9533 13.0142C15.4168 10.9115 18.4019 9.50835 21.6008 8.94932C22.3087 8.82167 23.0264 8.78365 23.7354 8.67139L23.9474 8.68858C23.9433 8.7182 23.9298 8.74562 23.9087 8.76669C23.8876 8.78777 23.8602 8.80135 23.8306 8.80537C21.5829 9.19647 19.9363 10.482 18.6906 12.3153C17.4915 14.0789 16.8194 16.0769 16.2925 18.1284C15.9745 19.4015 15.736 20.6938 15.5783 21.9978C15.4217 23.2426 15.2768 24.4865 15.2669 25.744C15.2712 26.1668 15.2809 26.586 15.1891 26.9997Z" fill="#FF454B"/>
<path d="M25.0904 6.5C25.7053 6.74625 25.9498 7.20616 25.8997 7.85165C25.8784 8.12325 25.8932 8.39484 25.8918 8.67187L25.7533 8.67822H25.1847L24.8161 8.65921L24.7988 6.50272L25.0904 6.5Z" fill="#979CA7"/>
<path d="M24.8003 6.5L24.8175 8.65649L24.8231 8.67822L24.1061 8.68546L23.9522 8.69089L23.7402 8.67369C23.7381 8.40933 23.7522 8.14226 23.7266 7.87971C23.6607 7.22516 23.9187 6.76798 24.5141 6.5H24.8003Z" fill="#A1A7B3"/>
<path d="M25.7535 8.67895L25.892 8.67261L25.9832 8.75137C26.414 8.96412 26.8908 9.02931 27.336 9.22034C28.7031 9.8054 29.8915 10.7448 30.7774 11.9408C31.7712 13.2617 32.445 14.7546 32.9771 16.3072C33.5647 18.0445 33.9959 19.8297 34.2656 21.6414C34.5187 23.2891 34.7066 24.9368 34.7235 26.6026C34.7244 26.7185 34.6874 26.8452 34.7851 26.9457C34.7475 27.1078 34.7198 27.2734 34.6686 27.431C34.5007 27.9461 34.0836 28.2177 33.5392 28.1769C33.3027 28.1618 33.0781 28.0659 32.9027 27.9054C32.7274 27.7449 32.6121 27.5294 32.576 27.2952C32.5606 27.1769 32.5176 27.0637 32.4504 26.9647C32.3833 26.8658 32.2938 26.7839 32.1894 26.7257C31.6341 26.3581 31.0081 26.1925 30.3618 26.1019C29.217 25.9408 28.0886 26.0114 27 26.4288C26.7996 26.5074 26.607 26.6044 26.4247 26.7185C26.1688 26.8733 26.0156 27.0806 26.0443 27.3929C25.8499 27.8718 25.5365 28.1896 24.9758 28.1679C24.9241 21.6924 24.8723 15.2166 24.8206 8.74051C24.8204 8.71969 24.8202 8.69887 24.8201 8.67895L24.8145 8.65723L25.1822 8.67623C25.2695 8.72592 25.368 8.75228 25.4681 8.75275C25.5682 8.75323 25.6665 8.72781 25.7535 8.67895Z" fill="#FF454B"/>
<path d="M24.8162 8.74015C24.868 15.2156 24.9198 21.6914 24.9715 28.1675L24.9771 28.1856C24.4337 28.1621 24.099 27.857 23.8959 27.3772C23.9344 26.9834 23.673 26.7905 23.3802 26.6276C22.7436 26.2745 22.056 26.1151 21.3457 26.0491C20.1778 25.9404 19.0414 26.0491 17.9754 26.5723C17.6399 26.7371 17.4036 26.9544 17.3317 27.3645C17.2452 27.8715 16.795 28.1793 16.2861 28.1793C16.0502 28.1737 15.8223 28.0894 15.6387 27.9398C15.455 27.7902 15.3262 27.5838 15.2727 27.3536C15.2419 27.2368 15.2165 27.1192 15.1893 27.0024C15.2766 26.5895 15.2732 26.1704 15.2699 25.7503C15.2797 24.4928 15.4246 23.2489 15.5813 22.0041C15.739 20.7001 15.9775 19.4078 16.2955 18.1347C16.8169 16.0832 17.4899 14.0852 18.6936 12.3216C19.9393 10.4883 21.5859 9.20277 23.8336 8.81167C23.8632 8.80764 23.8906 8.79406 23.9117 8.77299C23.9327 8.75192 23.9463 8.72449 23.9503 8.69488L24.1042 8.68945C24.3341 8.79538 24.5788 8.7148 24.8162 8.74015Z" fill="#D10007"/>
<path d="M34.7806 26.9445C34.6829 26.844 34.7199 26.7173 34.719 26.6014C34.7057 24.9356 34.5114 23.2879 34.261 21.6402C33.9914 19.8285 33.5602 18.0433 32.9726 16.306C32.4405 14.7534 31.7712 13.2605 30.7729 11.9397C29.8869 10.7436 28.6986 9.80421 27.3314 9.21915C26.8881 9.02812 26.4095 8.96294 25.9786 8.75018C26.8998 8.68229 27.7968 8.87603 28.6865 9.06795C32.1261 9.78521 35.2927 11.4802 37.8048 13.9486C40.6217 16.6944 42.4291 19.9961 43.1553 23.8673C43.3596 24.9184 43.4633 25.9858 43.4651 27.055C43.4627 27.6597 43.0735 28.1223 42.5198 28.1748C41.9073 28.2328 41.4045 27.8625 41.3081 27.2414C41.2662 26.9762 41.1058 26.8458 40.9092 26.7227C40.3032 26.3425 39.6265 26.1795 38.9331 26.089C37.8183 25.9351 36.7359 26.1071 35.6764 26.4339C35.3398 26.5277 35.0322 26.703 34.7806 26.9445Z" fill="#D10007"/>
<path d="M24.9699 28.1666C25.5305 28.1883 25.844 27.8705 26.0384 27.3916C26.0563 29.0284 26.0734 30.6656 26.0895 32.303C26.1073 34.5301 26.1196 36.7572 26.1429 38.9843C26.1496 39.8271 26.4523 40.5442 27.2137 40.9896C28.6791 41.8469 30.3331 40.9172 30.4748 39.1663C30.5317 38.4637 30.9513 38.0545 31.5952 38.0799C32.2147 38.0998 32.6377 38.5787 32.6459 39.2686C32.6678 41.2204 31.0984 43.0981 29.1761 43.4258C27.6391 43.6884 26.3247 43.2728 25.2212 42.1584C25.1185 42.0733 25.0391 41.9636 24.9905 41.8397C25.1407 41.7175 25.0733 41.5482 25.0721 41.4006C25.0417 36.9947 25.0083 32.5888 24.9719 28.1829L24.9699 28.1666Z" fill="#979CA7"/>
<path d="M24.9755 28.185C25.0107 32.5909 25.0441 36.9968 25.0757 41.4027C25.0769 41.5503 25.1444 41.7196 24.9941 41.8418C24.3586 41.1967 24.001 40.3292 23.9988 39.4273C23.9341 35.4113 23.9238 31.3944 23.8944 27.3774C24.0974 27.8582 24.4321 28.1615 24.9755 28.185Z" fill="#A1A7B3"/>
<path d="M25.7534 8.67871C25.6668 8.72725 25.5689 8.75276 25.4691 8.75276C25.3693 8.75276 25.271 8.72725 25.1836 8.67871H25.7534Z" fill="#4596E5"/>
<path d="M24.8179 8.73977C24.5803 8.71462 24.3355 8.79454 24.1036 8.68589L24.821 8.67871C24.8194 8.69847 24.8186 8.71911 24.8179 8.73977Z" fill="#4DA6FE"/>
</g>
<defs>
<clipPath id="clip0_417_15372">
<rect width="37" height="37" fill="white" transform="matrix(1 0 0.0079926 0.999968 6.30078 6.5)"/>
</clipPath>
</defs>
</svg>
