<svg width="24" height="25" viewBox="0 0 24 25" fill="none" xmlns="http://www.w3.org/2000/svg">
<path fill-rule="evenodd" clip-rule="evenodd" d="M15.75 4.25C16.1642 4.25 16.5 4.58579 16.5 5V6.5H20.25C20.6642 6.5 21 6.83579 21 7.25C21 7.66421 20.6642 8 20.25 8H16.5V9.5C16.5 9.91421 16.1642 10.25 15.75 10.25C15.3358 10.25 15 9.91421 15 9.5V5C15 4.58579 15.3358 4.25 15.75 4.25ZM3 7.25C3 6.83579 3.33579 6.5 3.75 6.5H12C12.4142 6.5 12.75 6.83579 12.75 7.25C12.75 7.66421 12.4142 8 12 8H3.75C3.33579 8 3 7.66421 3 7.25Z" fill="#FF0008"/>
<path fill-rule="evenodd" clip-rule="evenodd" d="M12 14.75C12.4142 14.75 12.75 15.0858 12.75 15.5V17H20.25C20.6642 17 21 17.3358 21 17.75C21 18.1642 20.6642 18.5 20.25 18.5H12.75V20C12.75 20.4142 12.4142 20.75 12 20.75C11.5858 20.75 11.25 20.4142 11.25 20V15.5C11.25 15.0858 11.5858 14.75 12 14.75ZM3 17.75C3 17.3358 3.33579 17 3.75 17H8.25C8.66421 17 9 17.3358 9 17.75C9 18.1642 8.66421 18.5 8.25 18.5H3.75C3.33579 18.5 3 18.1642 3 17.75Z" fill="#FF0008"/>
<path fill-rule="evenodd" clip-rule="evenodd" d="M8.25 15.5C7.83579 15.5 7.5 15.1642 7.5 14.75L7.5 13.25L3.75 13.25C3.33579 13.25 3 12.9142 3 12.5C3 12.0858 3.33579 11.75 3.75 11.75L7.5 11.75L7.5 10.25C7.5 9.83579 7.83579 9.5 8.25 9.5C8.66421 9.5 9 9.83579 9 10.25L9 14.75C9 15.1642 8.66421 15.5 8.25 15.5ZM21 12.5C21 12.9142 20.6642 13.25 20.25 13.25L12 13.25C11.5858 13.25 11.25 12.9142 11.25 12.5C11.25 12.0858 11.5858 11.75 12 11.75L20.25 11.75C20.6642 11.75 21 12.0858 21 12.5Z" fill="#FF0008"/>
</svg>
