<svg width="24" height="24" viewBox="0 0 24 24" fill="none" xmlns="http://www.w3.org/2000/svg">
<path fill-rule="evenodd" clip-rule="evenodd" d="M19.2695 10.8649C17.3439 11.2798 15.2538 10.739 13.7574 9.24264C11.5386 7.02384 11.4208 3.4996 13.4041 1.14225C12.9454 1.04832 12.4752 1 12 1C10.1435 1 8.36299 1.7375 7.05023 3.05025C5.73748 4.36301 4.99998 6.14348 4.99998 8C4.99998 10.9127 4.26798 12.8439 3.5006 14.0771L3.4888 14.0961C3.13148 14.6703 2.849 15.1243 2.65857 15.4547C2.56315 15.6202 2.47622 15.7797 2.41186 15.9215C2.37973 15.9922 2.34379 16.079 2.31569 16.1733C2.29239 16.2515 2.24799 16.4187 2.26463 16.6223C2.27582 16.7591 2.30372 16.9928 2.43787 17.2343C2.57202 17.4758 2.75575 17.623 2.86599 17.7047C3.11628 17.8904 3.40371 17.9329 3.49964 17.947L3.50407 17.9477C3.65148 17.9695 3.81875 17.9804 3.98751 17.9869C4.32269 18 4.78669 18 5.36373 18H5.36378H5.36383H5.36413H18.6358H18.6361H18.6362H18.6362C19.2133 18 19.6773 18 20.0125 17.9869C20.1812 17.9804 20.3485 17.9695 20.4959 17.9477L20.5003 17.947C20.5963 17.9329 20.8837 17.8904 21.134 17.7047C21.2442 17.623 21.4279 17.4758 21.5621 17.2343C21.6962 16.9928 21.7241 16.7591 21.7353 16.6223C21.752 16.4187 21.7076 16.2515 21.6843 16.1733C21.6562 16.079 21.6202 15.9922 21.5881 15.9215C21.5237 15.7797 21.4368 15.6202 21.3414 15.4547C21.151 15.1243 20.8686 14.6705 20.5114 14.0965L20.5112 14.0962L20.4994 14.0771C20.0183 13.304 19.5511 12.2565 19.2695 10.8649ZM10.0159 20.2503C9.60182 19.8848 8.96988 19.9242 8.60442 20.3383C8.23895 20.7523 8.27835 21.3843 8.69242 21.7497C9.57323 22.5272 10.7326 23 12 23C13.2674 23 14.4267 22.5272 15.3075 21.7497C15.7216 21.3843 15.761 20.7523 15.3955 20.3383C15.0301 19.9242 14.3981 19.8848 13.9841 20.2503C13.4546 20.7176 12.7615 21 12 21C11.2385 21 10.5453 20.7176 10.0159 20.2503Z" fill="#434343"/>
<path d="M20.1213 2.87868C21.2929 4.05025 21.2929 5.94975 20.1213 7.12132C18.9497 8.29289 17.0503 8.29289 15.8787 7.12132C14.7071 5.94975 14.7071 4.05025 15.8787 2.87868C17.0503 1.70711 18.9497 1.70711 20.1213 2.87868Z" fill="#434343" stroke="#434343" stroke-width="2" stroke-linecap="round" stroke-linejoin="round"/>
</svg>
