<svg width="24" height="24" viewBox="0 0 24 24" fill="none" xmlns="http://www.w3.org/2000/svg">
<path d="M9.35419 21C10.0593 21.6224 10.9856 22 12 22C13.0145 22 13.9407 21.6224 14.6458 21M12 2C10.4087 2 8.8826 2.63214 7.75738 3.75736C6.63216 4.88258 6.00002 6.4087 6.00002 8C6.00002 11.0902 5.22049 13.206 4.34968 14.6054C3.61515 15.7859 3.24788 16.3761 3.26134 16.5408C3.27626 16.7231 3.31488 16.7926 3.46179 16.9016C3.59448 17 4.19261 17 5.38887 17H18.6112C19.8074 17 20.4055 17 20.5382 16.9016C20.6851 16.7926 20.7237 16.7231 20.7386 16.5408C20.7521 16.3761 20.3848 15.7858 19.6502 14.6052C19.2233 13.9191 18.8184 13.0608 18.5165 12" stroke="#434343" stroke-width="2" stroke-linecap="round" stroke-linejoin="round"/>
<path d="M20.1213 2.87868C21.2929 4.05025 21.2929 5.94975 20.1213 7.12132C18.9497 8.29289 17.0503 8.29289 15.8787 7.12132C14.7071 5.94975 14.7071 4.05025 15.8787 2.87868C17.0503 1.70711 18.9497 1.70711 20.1213 2.87868Z" fill="#FF0008" stroke="#FF0008" stroke-width="2" stroke-linecap="round" stroke-linejoin="round"/>
</svg>
